<svg xmlns="http://www.w3.org/2000/svg" width="96" height="15" viewBox="0 0 96 15"><g><g><g><path d="M95.323 5.13l-4.409-.41a.761.761 0 0 1-.631-.458L88.703.51c-.252-.62-1.149-.62-1.401 0l-1.567 3.752a.745.745 0 0 1-.631.459l-4.409.408c-.656.062-.922.867-.429 1.3l3.322 2.862a.732.732 0 0 1 .24.73l-.998 4.013c-.151.632.543 1.152 1.124.817l3.676-2.117a.777.777 0 0 1 .77 0l3.676 2.117c.581.335 1.276-.173 1.125-.817l-.986-4.013a.732.732 0 0 1 .24-.73l3.322-2.861c.48-.434.202-1.239-.454-1.3z"/><path fill="#aab384" d="M95.323 5.13l-4.409-.41a.761.761 0 0 1-.631-.458L88.703.51c-.252-.62-1.149-.62-1.401 0l-1.567 3.752a.745.745 0 0 1-.631.459l-4.409.408c-.656.062-.922.867-.429 1.3l3.322 2.862a.732.732 0 0 1 .24.73l-.998 4.013c-.151.632.543 1.152 1.124.817l3.676-2.117a.777.777 0 0 1 .77 0l3.676 2.117c.581.335 1.276-.173 1.125-.817l-.986-4.013a.732.732 0 0 1 .24-.73l3.322-2.861c.48-.434.202-1.239-.454-1.3z"/></g><g><path d="M75.314 5.13l-4.408-.41a.76.76 0 0 1-.632-.458L68.696.51c-.253-.62-1.15-.62-1.403 0l-1.566 3.752a.745.745 0 0 1-.631.459l-4.409.408c-.657.062-.922.867-.43 1.3l3.323 2.862a.732.732 0 0 1 .24.73l-.998 4.013c-.152.632.543 1.152 1.124.817l3.676-2.117a.777.777 0 0 1 .77 0l3.676 2.117c.581.335 1.276-.173 1.124-.817l-.985-4.013a.732.732 0 0 1 .24-.73l3.322-2.861c.48-.434.202-1.239-.455-1.3z"/><path fill="#aab384" d="M75.314 5.13l-4.408-.41a.76.76 0 0 1-.632-.458L68.696.51c-.253-.62-1.15-.62-1.403 0l-1.566 3.752a.745.745 0 0 1-.631.459l-4.409.408c-.657.062-.922.867-.43 1.3l3.323 2.862a.732.732 0 0 1 .24.73l-.998 4.013c-.152.632.543 1.152 1.124.817l3.676-2.117a.777.777 0 0 1 .77 0l3.676 2.117c.581.335 1.276-.173 1.124-.817l-.985-4.013a.732.732 0 0 1 .24-.73l3.322-2.861c.48-.434.202-1.239-.455-1.3z"/></g><g><path d="M55.306 5.13l-4.408-.41a.761.761 0 0 1-.632-.458L48.687.51c-.252-.62-1.15-.62-1.402 0L45.72 4.262a.745.745 0 0 1-.632.459l-4.408.408c-.657.062-.922.867-.43 1.3l3.323 2.862a.732.732 0 0 1 .24.73l-.998 4.013c-.152.632.543 1.152 1.124.817l3.676-2.117a.777.777 0 0 1 .77 0l3.676 2.117c.58.335 1.276-.173 1.124-.817l-.985-4.013a.732.732 0 0 1 .24-.73L55.76 6.43c.48-.434.202-1.239-.455-1.3z"/><path fill="#aab384" d="M55.306 5.13l-4.408-.41a.761.761 0 0 1-.632-.458L48.687.51c-.252-.62-1.15-.62-1.402 0L45.72 4.262a.745.745 0 0 1-.632.459l-4.408.408c-.657.062-.922.867-.43 1.3l3.323 2.862a.732.732 0 0 1 .24.73l-.998 4.013c-.152.632.543 1.152 1.124.817l3.676-2.117a.777.777 0 0 1 .77 0l3.676 2.117c.58.335 1.276-.173 1.124-.817l-.985-4.013a.732.732 0 0 1 .24-.73L55.76 6.43c.48-.434.202-1.239-.455-1.3z"/></g><g><path d="M35.298 5.13l-4.408-.41a.76.76 0 0 1-.632-.458L28.679.51c-.253-.62-1.15-.62-1.402 0l-1.566 3.752a.745.745 0 0 1-.632.459l-4.408.408c-.657.062-.922.867-.43 1.3l3.322 2.862a.732.732 0 0 1 .24.73l-.998 4.013c-.151.632.544 1.152 1.125.817l3.675-2.117a.777.777 0 0 1 .77 0l3.677 2.117c.58.335 1.275-.173 1.124-.817l-.985-4.013a.732.732 0 0 1 .24-.73l3.322-2.861c.48-.434.202-1.239-.455-1.3z"/><path fill="#aab384" d="M35.298 5.13l-4.408-.41a.76.76 0 0 1-.632-.458L28.679.51c-.253-.62-1.15-.62-1.402 0l-1.566 3.752a.745.745 0 0 1-.632.459l-4.408.408c-.657.062-.922.867-.43 1.3l3.322 2.862a.732.732 0 0 1 .24.73l-.998 4.013c-.151.632.544 1.152 1.125.817l3.675-2.117a.777.777 0 0 1 .77 0l3.677 2.117c.58.335 1.275-.173 1.124-.817l-.985-4.013a.732.732 0 0 1 .24-.73l3.322-2.861c.48-.434.202-1.239-.455-1.3z"/></g><g><path d="M15.292 5.12l-4.407-.41a.762.762 0 0 1-.631-.461L8.676.481c-.253-.622-1.15-.622-1.402 0L5.708 4.249a.745.745 0 0 1-.631.46L.67 5.12a.748.748 0 0 0-.429 1.306l3.32 2.873c.215.187.304.46.24.734l-.997 4.03c-.151.634.543 1.156 1.124.82l3.674-2.126a.773.773 0 0 1 .77 0l3.675 2.126c.58.336 1.275-.174 1.123-.82l-.984-4.03a.737.737 0 0 1 .24-.734l3.32-2.873c.48-.435.202-1.243-.454-1.305z"/><path fill="#aab384" d="M15.292 5.12l-4.407-.41a.762.762 0 0 1-.631-.461L8.676.481c-.253-.622-1.15-.622-1.402 0L5.708 4.249a.745.745 0 0 1-.631.46L.67 5.12a.748.748 0 0 0-.429 1.306l3.32 2.873c.215.187.304.46.24.734l-.997 4.03c-.151.634.543 1.156 1.124.82l3.674-2.126a.773.773 0 0 1 .77 0l3.675 2.126c.58.336 1.275-.174 1.123-.82l-.984-4.03a.737.737 0 0 1 .24-.734l3.32-2.873c.48-.435.202-1.243-.454-1.305z"/></g></g></g></svg>