<svg xmlns="http://www.w3.org/2000/svg" width="25" height="13" viewBox="0 0 25 13"><g><g><path d="M24.828 6.079L19.148.175a.553.553 0 0 0-.8-.064.606.606 0 0 0 0 .896l4.708 4.9H.568a.58.58 0 0 0-.568.59c0 .327.254.59.568.59h22.488l-4.709 4.895a.606.606 0 0 0-.062.832.553.553 0 0 0 .863 0l5.68-5.903a.607.607 0 0 0 0-.832z"/><path fill="#6e774a" d="M24.828 6.079L19.148.175a.553.553 0 0 0-.8-.064.606.606 0 0 0 0 .896l4.708 4.9H.568a.58.58 0 0 0-.568.59c0 .327.254.59.568.59h22.488l-4.709 4.895a.606.606 0 0 0-.062.832.553.553 0 0 0 .863 0l5.68-5.903a.607.607 0 0 0 0-.832z"/></g></g></svg>