<svg xmlns="http://www.w3.org/2000/svg" width="20" height="10" viewBox="0 0 20 10"><g><g><path d="M19.863 4.661L15.319.134a.455.455 0 0 0-.641-.05.451.451 0 0 0 0 .688l3.767 3.758H.455a.453.453 0 1 0 0 .905h17.99l-3.767 3.753a.452.452 0 0 0-.05.639.455.455 0 0 0 .69 0L19.864 5.3a.452.452 0 0 0 0-.639z"/><path fill="#f7f8f3" d="M19.863 4.661L15.319.134a.455.455 0 0 0-.641-.05.451.451 0 0 0 0 .688l3.767 3.758H.455a.453.453 0 1 0 0 .905h17.99l-3.767 3.753a.452.452 0 0 0-.05.639.455.455 0 0 0 .69 0L19.864 5.3a.452.452 0 0 0 0-.639z"/></g></g></svg>